<svg width="88" height="90" viewBox="0 0 88 90" fill="none" xmlns="http://www.w3.org/2000/svg">
<path d="M43.0078 0.820312C43.6093 0.820312 44.1135 1.27481 44.1758 1.87305L45.1045 10.8154C45.4832 14.4626 48.3656 17.3449 52.0127 17.7236L60.9551 18.6523C61.5533 18.7146 62.0078 19.2188 62.0078 19.8203C62.0078 20.4218 61.5533 20.926 60.9551 20.9883L52.0127 21.917C48.3656 22.2957 45.4832 25.1781 45.1045 28.8252L44.1758 37.7676C44.1135 38.3658 43.6093 38.8203 43.0078 38.8203C42.4063 38.8203 41.9021 38.3658 41.8398 37.7676L40.9111 28.8252C40.5324 25.1781 37.6501 22.2957 34.0029 21.917L25.0605 20.9883C24.4623 20.926 24.0078 20.4218 24.0078 19.8203C24.0078 19.2188 24.4623 18.7146 25.0605 18.6523L34.0029 17.7236C37.6501 17.3449 40.5324 14.4626 40.9111 10.8154L41.8398 1.87305C41.9021 1.27481 42.4063 0.820313 43.0078 0.820312Z" fill="#4BE1F4"/>
<path d="M78.5 71C78.8008 71 79.0528 71.2273 79.084 71.5264L79.5479 75.9971C79.7372 77.8207 81.1793 79.2628 83.0029 79.4521L87.4736 79.916C87.7728 79.9472 88 80.1992 88 80.5C88 80.8008 87.7727 81.0528 87.4736 81.084L83.0029 81.5479C81.1793 81.7372 79.7372 83.1793 79.5479 85.0029L79.084 89.4736C79.0528 89.7727 78.8008 90 78.5 90C78.1992 90 77.9472 89.7728 77.916 89.4736L77.4521 85.0029C77.2628 83.1793 75.8207 81.7372 73.9971 81.5479L69.5264 81.084C69.2273 81.0528 69 80.8008 69 80.5C69 80.1992 69.2273 79.9472 69.5264 79.916L73.9971 79.4521C75.8207 79.2628 77.2628 77.8207 77.4521 75.9971L77.916 71.5264C77.9472 71.2273 78.1992 71 78.5 71Z" fill="#F87388"/>
<path d="M9.5 55C9.80075 55 10.0528 55.2273 10.084 55.5264L10.5479 59.9971C10.7372 61.8207 12.1793 63.2628 14.0029 63.4521L18.4736 63.916C18.7728 63.9472 19 64.1992 19 64.5C19 64.8008 18.7727 65.0528 18.4736 65.084L14.0029 65.5479C12.1793 65.7372 10.7372 67.1793 10.5479 69.0029L10.084 73.4736C10.0528 73.7727 9.80075 74 9.5 74C9.19925 74 8.94715 73.7728 8.91602 73.4736L8.45215 69.0029C8.26284 67.1793 6.82073 65.7372 4.99707 65.5479L0.526367 65.084C0.227251 65.0528 0 64.8008 0 64.5C2.04713e-08 64.1992 0.227251 63.9472 0.526367 63.916L4.99707 63.4521C6.82073 63.2628 8.26284 61.8207 8.45215 59.9971L8.91602 55.5264C8.94715 55.2273 9.19925 55 9.5 55Z" fill="#C8D316"/>
</svg>
